<?xml version="1.0" encoding="utf-8" standalone="no"?>
<!DOCTYPE svg PUBLIC "-//W3C//DTD SVG 1.1//EN"
  "http://www.w3.org/Graphics/SVG/1.1/DTD/svg11.dtd">
<!-- Created with matplotlib (http://matplotlib.org/) -->
<svg height="416pt" version="1.1" viewBox="0 0 560 416" width="560pt" xmlns="http://www.w3.org/2000/svg" xmlns:xlink="http://www.w3.org/1999/xlink">
 <defs>
  <style type="text/css">
*{stroke-linecap:butt;stroke-linejoin:round;stroke-miterlimit:100000;}
  </style>
 </defs>
 <g id="figure_1">
  <g id="patch_1">
   <path d="M 0 416.16 
L 560.16 416.16 
L 560.16 0 
L 0 0 
z
" style="fill:#ffffff;"/>
  </g>
  <g id="axes_1">
   <g id="patch_2">
    <path d="M 78.151875 376.72 
L 552.96 376.72 
L 552.96 13.601719 
L 78.151875 13.601719 
z
" style="fill:#ffffff;"/>
   </g>
   <g id="matplotlib.axis_1">
    <g id="xtick_1">
     <g id="line2d_1">
      <defs>
       <path d="M 0 0 
L 0 2 
" id="m9775a44144" style="stroke:#000000;"/>
      </defs>
      <g>
       <use style="stroke:#000000;" x="78.151875" xlink:href="#m9775a44144" y="376.72"/>
      </g>
     </g>
    </g>
    <g id="xtick_2">
     <g id="line2d_2">
      <g>
       <use style="stroke:#000000;" x="275.215051837" xlink:href="#m9775a44144" y="376.72"/>
      </g>
     </g>
    </g>
    <g id="xtick_3">
     <g id="line2d_3">
      <g>
       <use style="stroke:#000000;" x="428.069126956" xlink:href="#m9775a44144" y="376.72"/>
      </g>
     </g>
    </g>
    <g id="xtick_4">
     <g id="line2d_4">
      <g>
       <use style="stroke:#000000;" x="552.96" xlink:href="#m9775a44144" y="376.72"/>
      </g>
     </g>
    </g>
    <g id="text_1">
     <!-- q ($\AA^{-1}$) -->
     <defs>
      <path d="M 3.171875 21.484375 
L 3.171875 30.328125 
L 30.171875 30.328125 
L 30.171875 21.484375 
z
" id="ArialMT-2d"/>
      <path d="M 39.65625 -19.875 
L 39.65625 5.515625 
Q 37.59375 2.640625 33.90625 0.734375 
Q 30.21875 -1.171875 26.078125 -1.171875 
Q 16.84375 -1.171875 10.171875 6.203125 
Q 3.515625 13.578125 3.515625 26.421875 
Q 3.515625 34.234375 6.21875 40.421875 
Q 8.9375 46.625 14.078125 49.828125 
Q 19.234375 53.03125 25.390625 53.03125 
Q 35.015625 53.03125 40.53125 44.921875 
L 40.53125 51.859375 
L 48.4375 51.859375 
L 48.4375 -19.875 
z
M 12.546875 26.078125 
Q 12.546875 16.0625 16.75 11.0625 
Q 20.953125 6.0625 26.8125 6.0625 
Q 32.421875 6.0625 36.46875 10.8125 
Q 40.53125 15.578125 40.53125 25.296875 
Q 40.53125 35.640625 36.25 40.859375 
Q 31.984375 46.09375 26.21875 46.09375 
Q 20.515625 46.09375 16.53125 41.234375 
Q 12.546875 36.375 12.546875 26.078125 
" id="ArialMT-71"/>
      <path d="M -0.140625 0 
L 27.34375 71.578125 
L 37.546875 71.578125 
L 66.84375 0 
L 56.0625 0 
L 47.703125 21.6875 
L 17.78125 21.6875 
L 9.90625 0 
z
M 20.515625 29.390625 
L 44.78125 29.390625 
L 37.3125 49.21875 
Q 33.890625 58.25 32.234375 64.0625 
Q 30.859375 57.171875 28.375 50.390625 
z
M 23.53125 78.328125 
Q 23.53125 81.890625 26.140625 84.484375 
Q 28.765625 87.078125 32.328125 87.078125 
Q 35.9375 87.078125 38.515625 84.453125 
Q 41.109375 81.84375 41.109375 78.140625 
Q 41.109375 74.375 38.515625 71.78125 
Q 35.9375 69.203125 32.375 69.203125 
Q 28.71875 69.203125 26.125 71.8125 
Q 23.53125 74.421875 23.53125 78.328125 
M 27.25 78.28125 
Q 27.25 75.984375 28.78125 74.421875 
Q 30.328125 72.859375 32.421875 72.859375 
Q 34.515625 72.859375 36.046875 74.421875 
Q 37.59375 75.984375 37.59375 78.1875 
Q 37.59375 80.390625 36.078125 81.953125 
Q 34.578125 83.515625 32.421875 83.515625 
Q 30.328125 83.515625 28.78125 81.96875 
Q 27.25 80.4375 27.25 78.28125 
" id="ArialMT-c5"/>
      <path d="M 12.359375 -21.046875 
L 6.0625 -21.046875 
Q 20.65625 2.390625 20.65625 25.875 
Q 20.65625 35.0625 18.5625 44.09375 
Q 16.890625 51.421875 13.921875 58.15625 
Q 12.015625 62.546875 6.0625 72.796875 
L 12.359375 72.796875 
Q 21.53125 60.546875 25.921875 48.1875 
Q 29.6875 37.546875 29.6875 25.921875 
Q 29.6875 12.75 24.625 0.4375 
Q 19.578125 -11.859375 12.359375 -21.046875 
" id="ArialMT-29"/>
      <path d="M 23.390625 -21.046875 
Q 16.109375 -11.859375 11.078125 0.4375 
Q 6.0625 12.75 6.0625 25.921875 
Q 6.0625 37.546875 9.8125 48.1875 
Q 14.203125 60.546875 23.390625 72.796875 
L 29.6875 72.796875 
Q 23.78125 62.640625 21.875 58.296875 
Q 18.890625 51.5625 17.1875 44.234375 
Q 15.09375 35.109375 15.09375 25.875 
Q 15.09375 2.390625 29.6875 -21.046875 
z
" id="ArialMT-28"/>
      <path d="M 37.25 0 
L 28.46875 0 
L 28.46875 56 
Q 25.296875 52.984375 20.140625 49.953125 
Q 14.984375 46.921875 10.890625 45.40625 
L 10.890625 53.90625 
Q 18.265625 57.375 23.78125 62.296875 
Q 29.296875 67.234375 31.59375 71.875 
L 37.25 71.875 
z
" id="ArialMT-31"/>
      <path id="ArialMT-20"/>
     </defs>
     <g transform="translate(289.2759375 405.0)scale(0.18 -0.18)">
      <use transform="translate(0.0 0.884375)" xlink:href="#ArialMT-71"/>
      <use transform="translate(55.615234375 0.884375)" xlink:href="#ArialMT-20"/>
      <use transform="translate(83.3984375 0.884375)" xlink:href="#ArialMT-28"/>
      <use transform="translate(116.69921875 0.884375)" xlink:href="#ArialMT-c5"/>
      <use transform="translate(188.62546875 45.6875)scale(0.7)" xlink:href="#ArialMT-2d"/>
      <use transform="translate(211.936015625 45.6875)scale(0.7)" xlink:href="#ArialMT-31"/>
      <use transform="translate(258.333867188 0.884375)" xlink:href="#ArialMT-29"/>
     </g>
    </g>
   </g>
   <g id="matplotlib.axis_2">
    <g id="ytick_1">
     <g id="line2d_5">
      <defs>
       <path d="M 0 0 
L -4 0 
" id="meb4bb47393" style="stroke:#000000;"/>
      </defs>
      <g>
       <use style="stroke:#000000;" x="78.151875" xlink:href="#meb4bb47393" y="376.72"/>
      </g>
     </g>
     <g id="text_2">
      <!-- $\mathdefault{6500}$ -->
      <defs>
       <path d="M 4.15625 35.296875 
Q 4.15625 48 6.765625 55.734375 
Q 9.375 63.484375 14.515625 67.671875 
Q 19.671875 71.875 27.484375 71.875 
Q 33.25 71.875 37.59375 69.546875 
Q 41.9375 67.234375 44.765625 62.859375 
Q 47.609375 58.5 49.21875 52.21875 
Q 50.828125 45.953125 50.828125 35.296875 
Q 50.828125 22.703125 48.234375 14.96875 
Q 45.65625 7.234375 40.5 3 
Q 35.359375 -1.21875 27.484375 -1.21875 
Q 17.140625 -1.21875 11.234375 6.203125 
Q 4.15625 15.140625 4.15625 35.296875 
M 13.1875 35.296875 
Q 13.1875 17.671875 17.3125 11.828125 
Q 21.4375 6 27.484375 6 
Q 33.546875 6 37.671875 11.859375 
Q 41.796875 17.71875 41.796875 35.296875 
Q 41.796875 52.984375 37.671875 58.78125 
Q 33.546875 64.59375 27.390625 64.59375 
Q 21.34375 64.59375 17.71875 59.46875 
Q 13.1875 52.9375 13.1875 35.296875 
" id="ArialMT-30"/>
       <path d="M 4.15625 18.75 
L 13.375 19.53125 
Q 14.40625 12.796875 18.140625 9.390625 
Q 21.875 6 27.15625 6 
Q 33.5 6 37.890625 10.78125 
Q 42.28125 15.578125 42.28125 23.484375 
Q 42.28125 31 38.0625 35.34375 
Q 33.84375 39.703125 27 39.703125 
Q 22.75 39.703125 19.328125 37.765625 
Q 15.921875 35.84375 13.96875 32.765625 
L 5.71875 33.84375 
L 12.640625 70.609375 
L 48.25 70.609375 
L 48.25 62.203125 
L 19.671875 62.203125 
L 15.828125 42.96875 
Q 22.265625 47.46875 29.34375 47.46875 
Q 38.71875 47.46875 45.15625 40.96875 
Q 51.609375 34.46875 51.609375 24.265625 
Q 51.609375 14.546875 45.953125 7.46875 
Q 39.0625 -1.21875 27.15625 -1.21875 
Q 17.390625 -1.21875 11.203125 4.25 
Q 5.03125 9.71875 4.15625 18.75 
" id="ArialMT-35"/>
       <path d="M 49.75 54.046875 
L 41.015625 53.375 
Q 39.84375 58.546875 37.703125 60.890625 
Q 34.125 64.65625 28.90625 64.65625 
Q 24.703125 64.65625 21.53125 62.3125 
Q 17.390625 59.28125 14.984375 53.46875 
Q 12.59375 47.65625 12.5 36.921875 
Q 15.671875 41.75 20.265625 44.09375 
Q 24.859375 46.4375 29.890625 46.4375 
Q 38.671875 46.4375 44.84375 39.96875 
Q 51.03125 33.5 51.03125 23.25 
Q 51.03125 16.5 48.125 10.71875 
Q 45.21875 4.9375 40.140625 1.859375 
Q 35.0625 -1.21875 28.609375 -1.21875 
Q 17.625 -1.21875 10.6875 6.859375 
Q 3.765625 14.9375 3.765625 33.5 
Q 3.765625 54.25 11.421875 63.671875 
Q 18.109375 71.875 29.4375 71.875 
Q 37.890625 71.875 43.28125 67.140625 
Q 48.6875 62.40625 49.75 54.046875 
M 13.875 23.1875 
Q 13.875 18.65625 15.796875 14.5 
Q 17.71875 10.359375 21.1875 8.171875 
Q 24.65625 6 28.46875 6 
Q 34.03125 6 38.03125 10.484375 
Q 42.046875 14.984375 42.046875 22.703125 
Q 42.046875 30.125 38.078125 34.390625 
Q 34.125 38.671875 28.125 38.671875 
Q 22.171875 38.671875 18.015625 34.390625 
Q 13.875 30.125 13.875 23.1875 
" id="ArialMT-36"/>
      </defs>
      <g transform="translate(36.931875 380.33921875)scale(0.14 -0.14)">
       <use transform="translate(0.0 0.125)" xlink:href="#ArialMT-36"/>
       <use transform="translate(55.615234375 0.125)" xlink:href="#ArialMT-35"/>
       <use transform="translate(111.23046875 0.125)" xlink:href="#ArialMT-30"/>
       <use transform="translate(166.845703125 0.125)" xlink:href="#ArialMT-30"/>
      </g>
     </g>
    </g>
    <g id="ytick_2">
     <g id="line2d_6">
      <g>
       <use style="stroke:#000000;" x="78.151875" xlink:href="#meb4bb47393" y="324.845959821"/>
      </g>
     </g>
     <g id="text_3">
      <!-- $\mathdefault{7000}$ -->
      <defs>
       <path d="M 4.734375 62.203125 
L 4.734375 70.65625 
L 51.078125 70.65625 
L 51.078125 63.8125 
Q 44.234375 56.546875 37.515625 44.484375 
Q 30.8125 32.421875 27.15625 19.671875 
Q 24.515625 10.6875 23.78125 0 
L 14.75 0 
Q 14.890625 8.453125 18.0625 20.40625 
Q 21.234375 32.375 27.171875 43.484375 
Q 33.109375 54.59375 39.796875 62.203125 
z
" id="ArialMT-37"/>
      </defs>
      <g transform="translate(36.931875 328.465178571)scale(0.14 -0.14)">
       <use transform="translate(0.0 0.125)" xlink:href="#ArialMT-37"/>
       <use transform="translate(55.615234375 0.125)" xlink:href="#ArialMT-30"/>
       <use transform="translate(111.23046875 0.125)" xlink:href="#ArialMT-30"/>
       <use transform="translate(166.845703125 0.125)" xlink:href="#ArialMT-30"/>
      </g>
     </g>
    </g>
    <g id="ytick_3">
     <g id="line2d_7">
      <g>
       <use style="stroke:#000000;" x="78.151875" xlink:href="#meb4bb47393" y="272.971919643"/>
      </g>
     </g>
     <g id="text_4">
      <!-- $\mathdefault{7500}$ -->
      <g transform="translate(36.931875 276.591138393)scale(0.14 -0.14)">
       <use transform="translate(0.0 0.125)" xlink:href="#ArialMT-37"/>
       <use transform="translate(55.615234375 0.125)" xlink:href="#ArialMT-35"/>
       <use transform="translate(111.23046875 0.125)" xlink:href="#ArialMT-30"/>
       <use transform="translate(166.845703125 0.125)" xlink:href="#ArialMT-30"/>
      </g>
     </g>
    </g>
    <g id="ytick_4">
     <g id="line2d_8">
      <g>
       <use style="stroke:#000000;" x="78.151875" xlink:href="#meb4bb47393" y="221.097879464"/>
      </g>
     </g>
     <g id="text_5">
      <!-- $\mathdefault{8000}$ -->
      <defs>
       <path d="M 17.671875 38.8125 
Q 12.203125 40.828125 9.5625 44.53125 
Q 6.9375 48.25 6.9375 53.421875 
Q 6.9375 61.234375 12.546875 66.546875 
Q 18.171875 71.875 27.484375 71.875 
Q 36.859375 71.875 42.578125 66.421875 
Q 48.296875 60.984375 48.296875 53.171875 
Q 48.296875 48.1875 45.671875 44.5 
Q 43.0625 40.828125 37.75 38.8125 
Q 44.34375 36.671875 47.78125 31.875 
Q 51.21875 27.09375 51.21875 20.453125 
Q 51.21875 11.28125 44.71875 5.03125 
Q 38.234375 -1.21875 27.640625 -1.21875 
Q 17.046875 -1.21875 10.546875 5.046875 
Q 4.046875 11.328125 4.046875 20.703125 
Q 4.046875 27.6875 7.59375 32.390625 
Q 11.140625 37.109375 17.671875 38.8125 
M 15.921875 53.71875 
Q 15.921875 48.640625 19.1875 45.40625 
Q 22.46875 42.1875 27.6875 42.1875 
Q 32.765625 42.1875 36.015625 45.375 
Q 39.265625 48.578125 39.265625 53.21875 
Q 39.265625 58.0625 35.90625 61.359375 
Q 32.5625 64.65625 27.59375 64.65625 
Q 22.5625 64.65625 19.234375 61.421875 
Q 15.921875 58.203125 15.921875 53.71875 
M 13.09375 20.65625 
Q 13.09375 16.890625 14.875 13.375 
Q 16.65625 9.859375 20.171875 7.921875 
Q 23.6875 6 27.734375 6 
Q 34.03125 6 38.125 10.046875 
Q 42.234375 14.109375 42.234375 20.359375 
Q 42.234375 26.703125 38.015625 30.859375 
Q 33.796875 35.015625 27.4375 35.015625 
Q 21.234375 35.015625 17.15625 30.90625 
Q 13.09375 26.8125 13.09375 20.65625 
" id="ArialMT-38"/>
      </defs>
      <g transform="translate(36.931875 224.717098214)scale(0.14 -0.14)">
       <use transform="translate(0.0 0.125)" xlink:href="#ArialMT-38"/>
       <use transform="translate(55.615234375 0.125)" xlink:href="#ArialMT-30"/>
       <use transform="translate(111.23046875 0.125)" xlink:href="#ArialMT-30"/>
       <use transform="translate(166.845703125 0.125)" xlink:href="#ArialMT-30"/>
      </g>
     </g>
    </g>
    <g id="ytick_5">
     <g id="line2d_9">
      <g>
       <use style="stroke:#000000;" x="78.151875" xlink:href="#meb4bb47393" y="169.223839286"/>
      </g>
     </g>
     <g id="text_6">
      <!-- $\mathdefault{8500}$ -->
      <g transform="translate(36.931875 172.843058036)scale(0.14 -0.14)">
       <use transform="translate(0.0 0.125)" xlink:href="#ArialMT-38"/>
       <use transform="translate(55.615234375 0.125)" xlink:href="#ArialMT-35"/>
       <use transform="translate(111.23046875 0.125)" xlink:href="#ArialMT-30"/>
       <use transform="translate(166.845703125 0.125)" xlink:href="#ArialMT-30"/>
      </g>
     </g>
    </g>
    <g id="ytick_6">
     <g id="line2d_10">
      <g>
       <use style="stroke:#000000;" x="78.151875" xlink:href="#meb4bb47393" y="117.349799107"/>
      </g>
     </g>
     <g id="text_7">
      <!-- $\mathdefault{9000}$ -->
      <defs>
       <path d="M 5.46875 16.546875 
L 13.921875 17.328125 
Q 14.984375 11.375 18.015625 8.6875 
Q 21.046875 6 25.78125 6 
Q 29.828125 6 32.875 7.859375 
Q 35.9375 9.71875 37.890625 12.8125 
Q 39.84375 15.921875 41.15625 21.1875 
Q 42.484375 26.46875 42.484375 31.9375 
Q 42.484375 32.515625 42.4375 33.6875 
Q 39.796875 29.5 35.234375 26.875 
Q 30.671875 24.265625 25.34375 24.265625 
Q 16.453125 24.265625 10.296875 30.703125 
Q 4.15625 37.15625 4.15625 47.703125 
Q 4.15625 58.59375 10.578125 65.234375 
Q 17 71.875 26.65625 71.875 
Q 33.640625 71.875 39.421875 68.109375 
Q 45.21875 64.359375 48.21875 57.390625 
Q 51.21875 50.4375 51.21875 37.25 
Q 51.21875 23.53125 48.234375 15.40625 
Q 45.265625 7.28125 39.375 3.03125 
Q 33.5 -1.21875 25.59375 -1.21875 
Q 17.1875 -1.21875 11.859375 3.4375 
Q 6.546875 8.109375 5.46875 16.546875 
M 41.453125 48.140625 
Q 41.453125 55.71875 37.421875 60.15625 
Q 33.40625 64.59375 27.734375 64.59375 
Q 21.875 64.59375 17.53125 59.8125 
Q 13.1875 55.03125 13.1875 47.40625 
Q 13.1875 40.578125 17.3125 36.296875 
Q 21.4375 32.03125 27.484375 32.03125 
Q 33.59375 32.03125 37.515625 36.296875 
Q 41.453125 40.578125 41.453125 48.140625 
" id="ArialMT-39"/>
      </defs>
      <g transform="translate(36.931875 120.969017857)scale(0.14 -0.14)">
       <use transform="translate(0.0 0.125)" xlink:href="#ArialMT-39"/>
       <use transform="translate(55.615234375 0.125)" xlink:href="#ArialMT-30"/>
       <use transform="translate(111.23046875 0.125)" xlink:href="#ArialMT-30"/>
       <use transform="translate(166.845703125 0.125)" xlink:href="#ArialMT-30"/>
      </g>
     </g>
    </g>
    <g id="ytick_7">
     <g id="line2d_11">
      <g>
       <use style="stroke:#000000;" x="78.151875" xlink:href="#meb4bb47393" y="65.4757589286"/>
      </g>
     </g>
     <g id="text_8">
      <!-- $\mathdefault{9500}$ -->
      <g transform="translate(36.931875 69.0949776786)scale(0.14 -0.14)">
       <use transform="translate(0.0 0.125)" xlink:href="#ArialMT-39"/>
       <use transform="translate(55.615234375 0.125)" xlink:href="#ArialMT-35"/>
       <use transform="translate(111.23046875 0.125)" xlink:href="#ArialMT-30"/>
       <use transform="translate(166.845703125 0.125)" xlink:href="#ArialMT-30"/>
      </g>
     </g>
    </g>
    <g id="ytick_8">
     <g id="line2d_12">
      <g>
       <use style="stroke:#000000;" x="78.151875" xlink:href="#meb4bb47393" y="13.60171875"/>
      </g>
     </g>
     <g id="text_9">
      <!-- $\mathdefault{10000}$ -->
      <g transform="translate(29.091875 17.2209375)scale(0.14 -0.14)">
       <use transform="translate(0.0 0.125)" xlink:href="#ArialMT-31"/>
       <use transform="translate(55.615234375 0.125)" xlink:href="#ArialMT-30"/>
       <use transform="translate(111.23046875 0.125)" xlink:href="#ArialMT-30"/>
       <use transform="translate(166.845703125 0.125)" xlink:href="#ArialMT-30"/>
       <use transform="translate(222.4609375 0.125)" xlink:href="#ArialMT-30"/>
      </g>
     </g>
    </g>
    <g id="text_10">
     <!-- Intensity (a.u.) -->
     <defs>
      <path d="M 9.328125 0 
L 9.328125 71.578125 
L 18.796875 71.578125 
L 18.796875 0 
z
" id="ArialMT-49"/>
      <path d="M 40.4375 6.390625 
Q 35.546875 2.25 31.03125 0.53125 
Q 26.515625 -1.171875 21.34375 -1.171875 
Q 12.796875 -1.171875 8.203125 3 
Q 3.609375 7.171875 3.609375 13.671875 
Q 3.609375 17.484375 5.34375 20.625 
Q 7.078125 23.78125 9.890625 25.6875 
Q 12.703125 27.59375 16.21875 28.5625 
Q 18.796875 29.25 24.03125 29.890625 
Q 34.671875 31.15625 39.703125 32.90625 
Q 39.75 34.71875 39.75 35.203125 
Q 39.75 40.578125 37.25 42.78125 
Q 33.890625 45.75 27.25 45.75 
Q 21.046875 45.75 18.09375 43.578125 
Q 15.140625 41.40625 13.71875 35.890625 
L 5.125 37.0625 
Q 6.296875 42.578125 8.984375 45.96875 
Q 11.671875 49.359375 16.75 51.1875 
Q 21.828125 53.03125 28.515625 53.03125 
Q 35.15625 53.03125 39.296875 51.46875 
Q 43.453125 49.90625 45.40625 47.53125 
Q 47.359375 45.171875 48.140625 41.546875 
Q 48.578125 39.3125 48.578125 33.453125 
L 48.578125 21.734375 
Q 48.578125 9.46875 49.140625 6.21875 
Q 49.703125 2.984375 51.375 0 
L 42.1875 0 
Q 40.828125 2.734375 40.4375 6.390625 
M 39.703125 26.03125 
Q 34.90625 24.078125 25.34375 22.703125 
Q 19.921875 21.921875 17.671875 20.9375 
Q 15.4375 19.96875 14.203125 18.09375 
Q 12.984375 16.21875 12.984375 13.921875 
Q 12.984375 10.40625 15.640625 8.0625 
Q 18.3125 5.71875 23.4375 5.71875 
Q 28.515625 5.71875 32.46875 7.9375 
Q 36.421875 10.15625 38.28125 14.015625 
Q 39.703125 17 39.703125 22.796875 
z
" id="ArialMT-61"/>
      <path d="M 6.203125 -19.96875 
L 5.21875 -11.71875 
Q 8.109375 -12.5 10.25 -12.5 
Q 13.1875 -12.5 14.9375 -11.515625 
Q 16.703125 -10.546875 17.828125 -8.796875 
Q 18.65625 -7.46875 20.515625 -2.25 
Q 20.75 -1.515625 21.296875 -0.09375 
L 1.609375 51.859375 
L 11.078125 51.859375 
L 21.875 21.828125 
Q 23.96875 16.109375 25.640625 9.8125 
Q 27.15625 15.875 29.25 21.625 
L 40.328125 51.859375 
L 49.125 51.859375 
L 29.390625 -0.875 
Q 26.21875 -9.421875 24.46875 -12.640625 
Q 22.125 -17 19.09375 -19.015625 
Q 16.0625 -21.046875 11.859375 -21.046875 
Q 9.328125 -21.046875 6.203125 -19.96875 
" id="ArialMT-79"/>
      <path d="M 42.09375 16.703125 
L 51.171875 15.578125 
Q 49.03125 7.625 43.21875 3.21875 
Q 37.40625 -1.171875 28.375 -1.171875 
Q 17 -1.171875 10.328125 5.828125 
Q 3.65625 12.84375 3.65625 25.484375 
Q 3.65625 38.578125 10.390625 45.796875 
Q 17.140625 53.03125 27.875 53.03125 
Q 38.28125 53.03125 44.875 45.953125 
Q 51.46875 38.875 51.46875 26.03125 
Q 51.46875 25.25 51.421875 23.6875 
L 12.75 23.6875 
Q 13.234375 15.140625 17.578125 10.59375 
Q 21.921875 6.0625 28.421875 6.0625 
Q 33.25 6.0625 36.671875 8.59375 
Q 40.09375 11.140625 42.09375 16.703125 
M 13.234375 30.90625 
L 42.1875 30.90625 
Q 41.609375 37.453125 38.875 40.71875 
Q 34.671875 45.796875 27.984375 45.796875 
Q 21.921875 45.796875 17.796875 41.75 
Q 13.671875 37.703125 13.234375 30.90625 
" id="ArialMT-65"/>
      <path d="M 25.78125 7.859375 
L 27.046875 0.09375 
Q 23.34375 -0.6875 20.40625 -0.6875 
Q 15.625 -0.6875 12.984375 0.828125 
Q 10.359375 2.34375 9.28125 4.8125 
Q 8.203125 7.28125 8.203125 15.1875 
L 8.203125 45.015625 
L 1.765625 45.015625 
L 1.765625 51.859375 
L 8.203125 51.859375 
L 8.203125 64.703125 
L 16.9375 69.96875 
L 16.9375 51.859375 
L 25.78125 51.859375 
L 25.78125 45.015625 
L 16.9375 45.015625 
L 16.9375 14.703125 
Q 16.9375 10.9375 17.40625 9.859375 
Q 17.875 8.796875 18.921875 8.15625 
Q 19.96875 7.515625 21.921875 7.515625 
Q 23.390625 7.515625 25.78125 7.859375 
" id="ArialMT-74"/>
      <path d="M 40.578125 0 
L 40.578125 7.625 
Q 34.515625 -1.171875 24.125 -1.171875 
Q 19.53125 -1.171875 15.546875 0.578125 
Q 11.578125 2.34375 9.640625 5 
Q 7.71875 7.671875 6.9375 11.53125 
Q 6.390625 14.109375 6.390625 19.734375 
L 6.390625 51.859375 
L 15.1875 51.859375 
L 15.1875 23.09375 
Q 15.1875 16.21875 15.71875 13.8125 
Q 16.546875 10.359375 19.234375 8.375 
Q 21.921875 6.390625 25.875 6.390625 
Q 29.828125 6.390625 33.296875 8.421875 
Q 36.765625 10.453125 38.203125 13.9375 
Q 39.65625 17.4375 39.65625 24.078125 
L 39.65625 51.859375 
L 48.4375 51.859375 
L 48.4375 0 
z
" id="ArialMT-75"/>
      <path d="M 6.640625 61.46875 
L 6.640625 71.578125 
L 15.4375 71.578125 
L 15.4375 61.46875 
z
M 6.640625 0 
L 6.640625 51.859375 
L 15.4375 51.859375 
L 15.4375 0 
z
" id="ArialMT-69"/>
      <path d="M 3.078125 15.484375 
L 11.765625 16.84375 
Q 12.5 11.625 15.84375 8.84375 
Q 19.1875 6.0625 25.203125 6.0625 
Q 31.25 6.0625 34.171875 8.515625 
Q 37.109375 10.984375 37.109375 14.3125 
Q 37.109375 17.28125 34.515625 19 
Q 32.71875 20.171875 25.53125 21.96875 
Q 15.875 24.421875 12.140625 26.203125 
Q 8.40625 27.984375 6.46875 31.125 
Q 4.546875 34.28125 4.546875 38.09375 
Q 4.546875 41.546875 6.125 44.5 
Q 7.71875 47.46875 10.453125 49.421875 
Q 12.5 50.921875 16.03125 51.96875 
Q 19.578125 53.03125 23.640625 53.03125 
Q 29.734375 53.03125 34.34375 51.265625 
Q 38.96875 49.515625 41.15625 46.5 
Q 43.359375 43.5 44.1875 38.484375 
L 35.59375 37.3125 
Q 35.015625 41.3125 32.203125 43.546875 
Q 29.390625 45.796875 24.265625 45.796875 
Q 18.21875 45.796875 15.625 43.796875 
Q 13.03125 41.796875 13.03125 39.109375 
Q 13.03125 37.40625 14.109375 36.03125 
Q 15.1875 34.625 17.484375 33.6875 
Q 18.796875 33.203125 25.25 31.453125 
Q 34.578125 28.953125 38.25 27.359375 
Q 41.9375 25.78125 44.03125 22.75 
Q 46.140625 19.734375 46.140625 15.234375 
Q 46.140625 10.84375 43.578125 6.953125 
Q 41.015625 3.078125 36.171875 0.953125 
Q 31.34375 -1.171875 25.25 -1.171875 
Q 15.140625 -1.171875 9.84375 3.03125 
Q 4.546875 7.234375 3.078125 15.484375 
" id="ArialMT-73"/>
      <path d="M 6.59375 0 
L 6.59375 51.859375 
L 14.5 51.859375 
L 14.5 44.484375 
Q 20.21875 53.03125 31 53.03125 
Q 35.6875 53.03125 39.625 51.34375 
Q 43.5625 49.65625 45.515625 46.921875 
Q 47.46875 44.1875 48.25 40.4375 
Q 48.734375 37.984375 48.734375 31.890625 
L 48.734375 0 
L 39.9375 0 
L 39.9375 31.546875 
Q 39.9375 36.921875 38.90625 39.578125 
Q 37.890625 42.234375 35.28125 43.8125 
Q 32.671875 45.40625 29.15625 45.40625 
Q 23.53125 45.40625 19.453125 41.84375 
Q 15.375 38.28125 15.375 28.328125 
L 15.375 0 
z
" id="ArialMT-6e"/>
      <path d="M 9.078125 0 
L 9.078125 10.015625 
L 19.09375 10.015625 
L 19.09375 0 
z
" id="ArialMT-2e"/>
     </defs>
     <g transform="translate(20.3034375 252.180078125)rotate(-90.0)scale(0.18 -0.18)">
      <use xlink:href="#ArialMT-49"/>
      <use x="27.783203125" xlink:href="#ArialMT-6e"/>
      <use x="83.3984375" xlink:href="#ArialMT-74"/>
      <use x="111.181640625" xlink:href="#ArialMT-65"/>
      <use x="166.796875" xlink:href="#ArialMT-6e"/>
      <use x="222.412109375" xlink:href="#ArialMT-73"/>
      <use x="272.412109375" xlink:href="#ArialMT-69"/>
      <use x="294.62890625" xlink:href="#ArialMT-74"/>
      <use x="322.412109375" xlink:href="#ArialMT-79"/>
      <use x="372.412109375" xlink:href="#ArialMT-20"/>
      <use x="400.1953125" xlink:href="#ArialMT-28"/>
      <use x="433.49609375" xlink:href="#ArialMT-61"/>
      <use x="489.111328125" xlink:href="#ArialMT-2e"/>
      <use x="516.89453125" xlink:href="#ArialMT-75"/>
      <use x="572.509765625" xlink:href="#ArialMT-2e"/>
      <use x="600.29296875" xlink:href="#ArialMT-29"/>
     </g>
    </g>
   </g>
   <g id="line2d_13">
    <path clip-path="url(#p68f0902c7d)" d="M 78.151875 1009.190497 
" style="fill:none;stroke:#5da5da;stroke-linecap:round;stroke-width:2.0;"/>
   </g>
   <g id="line2d_14">
    <path clip-path="url(#p68f0902c7d)" d="M 78.151875 1009.164485 
" style="fill:none;stroke:#faa43a;stroke-linecap:round;stroke-width:2.0;"/>
   </g>
   <g id="line2d_15">
    <path clip-path="url(#p68f0902c7d)" d="M 78.151875 56.819662 
L 132.981396 65.757042 
L 183.745604 77.546869 
L 231.00595 92.974109 
L 275.215052 111.839486 
L 316.743119 131.014004 
L 355.896823 150.802118 
L 392.93305 171.043196 
L 428.069127 192.854125 
L 461.490552 212.732837 
L 493.356917 233.650216 
L 523.806523 255.624518 
L 552.96 275.960718 
L 561.16 282.132516 
L 561.16 282.132516 
" style="fill:none;stroke:#60bd68;stroke-linecap:round;stroke-width:2.0;"/>
   </g>
   <g id="line2d_16">
    <path clip-path="url(#p68f0902c7d)" d="M 78.151875 72.897488 
L 132.981396 81.331126 
L 183.745604 92.64274 
L 231.00595 107.701237 
L 275.215052 125.922537 
L 316.743119 144.555319 
L 355.896823 163.891288 
L 392.93305 183.564813 
L 428.069127 204.780761 
L 461.490552 224.250213 
L 493.356917 244.80993 
L 523.806523 266.155312 
L 552.96 286.179314 
L 561.16 292.180077 
L 561.16 292.180077 
" style="fill:none;stroke:#f17cb0;stroke-linecap:round;stroke-width:2.0;"/>
   </g>
   <g id="patch_3">
    <path d="M 78.151875 376.72 
L 552.96 376.72 
" style="fill:none;stroke:#000000;stroke-linecap:square;stroke-linejoin:miter;"/>
   </g>
   <g id="patch_4">
    <path d="M 78.151875 376.72 
L 78.151875 13.601719 
" style="fill:none;stroke:#000000;stroke-linecap:square;stroke-linejoin:miter;"/>
   </g>
  </g>
 </g>
 <defs>
  <clipPath id="p68f0902c7d">
   <rect height="363.11828125" width="474.808125" x="78.151875" y="13.60171875"/>
  </clipPath>
 </defs>
</svg>
